<svg width="256" height="256" xmlns="http://www.w3.org/2000/svg">
 <g id="Layer_1">
  <title>Layer 1</title>
  <path fill="#8721e0" stroke="#212532" stroke-width="8" stroke-dasharray="—" opacity="undefined" d="m7.61538,57c0,-26.62557 22.37443,-49 49,-49l142,0c26.62557,0 49,22.37443 49,49l0,142c0,26.62557 -22.37443,49 -49,49l-142,0c-26.62557,0 -49,-22.37443 -49,-49l0,-142z" id="svg_2"/>
  <line fill="none" stroke="#212532" stroke-width="6" stroke-dasharray="—" x1="163.66667" y1="20" x2="163.66667" y2="235" id="svg_4"/>
  <line fill="none" stroke="#212532" stroke-width="6" stroke-dasharray="—" x1="85.33333" y1="20" x2="85.33333" y2="235" id="svg_5"/>
  <line fill-opacity="0" fill="none" stroke="#212532" stroke-width="6" stroke-dasharray="—" x1="20" y1="85" x2="235" y2="85" id="svg_6"/>
  <line fill="none" stroke="#212532" stroke-width="6" stroke-dasharray="—" x1="20" y1="164" x2="235" y2="164" id="svg_7"/>
  <path fill="none" stroke="#212532" stroke-width="8" stroke-dasharray="—" opacity="undefined" d="m125.5,223.5c-12.98343,0 -23.5,-10.29282 -23.5,-23c0,-12.70718 10.51657,-23 23.5,-23c12.98343,0 23.5,10.29282 23.5,23c0,12.70718 -10.51657,23 -23.5,23z" id="svg_11"/>
  <path fill="none" stroke="#212532" stroke-width="8" stroke-dasharray="—" opacity="undefined" d="m200.5,72.5c-12.98343,0 -23.5,-10.29282 -23.5,-23c0,-12.70718 10.51657,-23 23.5,-23c12.98343,0 23.5,10.29282 23.5,23c0,12.70718 -10.51657,23 -23.5,23z" id="svg_13"/>
  <line id="svg_15" y2="107.76918" x2="116.07695" y1="107.76918" x1="117.61541" stroke-dasharray="—" stroke-width="8" fill="none"/>
  <line id="svg_16" y2="129.30763" x2="95.30773" y1="107.38456" x1="114.53849" stroke-dasharray="—" stroke-width="8" fill="none"/>
  <line id="svg_17" y2="115.07687" x2="104.15388" y1="114.69225" x1="103.76926" stroke-dasharray="—" stroke-width="8" fill="none"/>
  <path id="svg_20" d="m108.76926,102.76918" opacity="NaN" stroke-dasharray="—" stroke-width="6" stroke="#212532" fill="none"/>
  <ellipse id="svg_25" cy="128.53841" cx="124.15387" stroke-dasharray="—" stroke-width="6" stroke="#212532" fill="none"/>
  <ellipse ry="13.65384" rx="15" id="svg_27" cy="125.26917" cx="109.30769" stroke-dasharray="—" stroke-width="6" stroke="#3f007f" fill="none"/>
  <ellipse ry="13.65384" rx="15" id="svg_28" cy="125.26917" cx="139.9231" stroke-dasharray="—" stroke-width="6" stroke="#3f007f" fill="none"/>
  <line id="svg_29" y2="225" x2="75" y1="175" x1="28" stroke-dasharray="—" stroke-width="8" stroke="#212532" fill="none"/>
  <line id="svg_30" y2="175" x2="74.5385" y1="225" x1="28.00005" stroke-dasharray="—" stroke-width="8" stroke="#212532" fill="none"/>
  <line id="svg_31" y2="76.92311" x2="75" y1="26.92311" x1="28" stroke-dasharray="—" stroke-width="8" stroke="#212532" fill="none"/>
  <line id="svg_32" y2="26.92311" x2="74.5385" y1="76.92311" x1="28.00005" stroke-dasharray="—" stroke-width="8" stroke="#212532" fill="none"/>
  <line id="svg_33" y2="149.6154" x2="224.23074" y1="99.6154" x1="177.23074" stroke-dasharray="—" stroke-width="8" stroke="#212532" fill="none"/>
  <line id="svg_34" y2="99.6154" x2="223.76924" y1="149.6154" x1="177.23079" stroke-dasharray="—" stroke-width="8" stroke="#212532" fill="none"/>
 </g>

</svg>